<svg width="24" height="24" viewBox="0 0 24 24" fill="none" xmlns="http://www.w3.org/2000/svg">
<path d="M17.6836 9.27961L12.9055 2.16964C12.8034 2.02608 12.6675 1.90953 12.5097 1.83018C12.3519 1.75083 12.1769 1.71109 12 1.71443C11.6509 1.71443 11.3018 1.86617 11.0945 2.18048L6.31636 9.27961H1.09091C0.490909 9.27961 0 9.76734 0 10.3635C0 10.461 0.0109091 10.5585 0.0436363 10.6561L2.81455 20.7033C3.06545 21.6137 3.90545 22.2857 4.90909 22.2857H19.0909C20.0945 22.2857 20.9345 21.6137 21.1964 20.7033L23.9673 10.6561L24 10.3635C24 9.76734 23.5091 9.27961 22.9091 9.27961H17.6836ZM8.72727 9.27961L12 4.51073L15.2727 9.27961H8.72727ZM12 17.9503C10.8 17.9503 9.81818 16.9749 9.81818 15.7826C9.81818 14.5904 10.8 13.615 12 13.615C13.2 13.615 14.1818 14.5904 14.1818 15.7826C14.1818 16.9749 13.2 17.9503 12 17.9503Z" fill="white"/>
</svg>
